# xmcd CD database file
#
# Track frame offsets:
#	150
#	16872
#	30062
#	49305
#	59222
#	74380
#	85697
#	102110
#	116397
#	126902
#	143010
#	155925
#
# Disc length: 2299 seconds
#
# Revision: 2
# Processed by: cddbd v1.5.2PL0 Copyright (c) Steve Scherf et al.
# Submitted via: CDex 1.70beta2
#
DISCID=9e08f90c
DTITLE=Mitchel John - She's a Keeper
DYEAR=1996
DGENRE=Country
TTITLE0=Hold on to The Rock
TTITLE1=She's a Keeper
TTITLE2=Just a House
TTITLE3=What Can I Say
TTITLE4=Tonight in Abilene
TTITLE5=I'd Rather be Lucky
TTITLE6=Vanishing Days of a Cowboy
TTITLE7=Dear John Deere
TTITLE8=Any Old Time
TTITLE9=From The Heart
TTITLE10=Twenty Years Later
TTITLE11=Cycles
EXTD=YEAR: 1996
EXTT0=
EXTT1=
EXTT2=
EXTT3=
EXTT4=
EXTT5=
EXTT6=
EXTT7=
EXTT8=
EXTT9=
EXTT10=
EXTT11=
PLAYORDER=
